# AST/ASF file generated using VICON BodyLanguage
# -----------------------------------------------
:version 1.10
:name VICON
:units
  mass 1.0
  length 0.45
  angle deg
:documentation
   .ast/.asf automatically generated from VICON data using
   VICON BodyBuilder and BodyLanguage model FoxedUp or BRILLIANT.MOD
:root
   order TX TY TZ RX RY RZ
   axis XYZ
   position 0 0 0  
   orientation 0 0 0 
:bonedata
  begin
     id 1 
     name lhipjoint
     direction 0.707368 -0.647095 0.284426 
     length 2.60678 
     axis 0 0 0  XYZ
  end
  begin
     id 2 
     name lfemur
     direction 0.34202 -0.939693 0  
     length 6.63812  
     axis 0 0 20  XYZ
    dof rx ry rz
    limits (-160.0 20.0)
           (-70.0 70.0)
           (-60.0 70.0)
  end
  begin
     id 3 
     name ltibia
     direction 0.34202 -0.939693 0   
     length 7.51178   
     axis 0 0 20   XYZ
    dof rx
    limits (-10.0 170.0)
  end
  begin
     id 4 
     name lfoot
     direction 0.121251 -0.333133 0.935051   
     length 1.83716   
     axis -90 7.62852e-016 20   XYZ
    dof rx rz
    limits (-45.0 90.0)
           (-70.0 20.0)
  end
  begin
     id 5 
     name ltoes
     direction 1.53611e-011 -4.21962e-011 1   
     length 0.916133   
     axis -90 7.62852e-016 20   XYZ
    dof rx
    limits (-90.0 20.0)
  end
  begin
     id 6 
     name rhipjoint
     direction -0.692419 -0.660507 0.290321   
     length 2.55385  
     axis 0 0 0  XYZ 
  end
  begin
     id 7 
     name rfemur
     direction -0.34202 -0.939693 0   
     length 7.29079   
     axis 0 0 -20   XYZ
    dof rx ry rz
    limits (-160.0 20.0)
           (-70.0 70.0)
           (-70.0 60.0)
  end
  begin
     id 8 
     name rtibia
     direction -0.34202 -0.939693 0   
     length 7.47143   
     axis 0 0 -20   XYZ
    dof rx
    limits (-10.0 170.0)
 end
 begin
     id 9 
     name rfoot
     direction -0.119907 -0.329441 0.936532   
     length 1.79439  
     axis -90 -7.62852e-016 -20   XYZ
    dof rx rz
    limits (-45.0 90.0)
           (-20.0 70.0)
  end
  begin
     id 10 
     name rtoes
     direction -1.53571e-011 -4.21961e-011 1   
     length 0.896039   
     axis -90 -7.62852e-016 -20   XYZ
    dof rx
    limits (-90.0 20.0)
  end
  begin
     id 11 
     name lowerback
     direction 0.0367721 0.992912 -0.113016   
     length 1.73542   
     axis 0 0 0   XYZ
    dof rx ry rz
    limits (-20.0 45.0)
           (-30.0 30.0)
           (-30.0 30.0)
  end
  begin
     id 12 
     name upperback
     direction -0.000314626 0.990678 0.136227   
     length 1.7514   
     axis 0 0 0   XYZ
    dof rx ry rz
    limits (-20.0 45.0)
           (-30.0 30.0)
           (-30.0 30.0)
  end
  begin
     id 13 
     name thorax
     direction -0.0226159 0.981151 0.191917   
     length 1.71471   
     axis 0 0 0   XYZ
    dof rx ry rz
    limits (-20.0 45.0)
           (-30.0 30.0)
           (-30.0 30.0)
  end
  begin
     id 14 
     name lowerneck
     direction 0.0219333 0.998071 0.0580739   
     length 1.65882   
     axis 0 0 0   XYZ
    dof rx ry rz
    limits (-20.0 45.0)
           (-30.0 30.0)
           (-30.0 30.0)
  end
  begin
     id 15 
     name upperneck
     direction 0.0384529 0.980058 -0.194957   
     length 1.6612   
     axis 0 0 0   XYZ
    dof rx ry rz
    limits (-20.0 45.0)
           (-30.0 30.0)
           (-30.0 30.0)
  end
  begin
     id 16
     name head
     direction 0.00592123 0.997421 -0.0715234  
     length 1.68077  
     axis 0 0 0   XYZ
    dof rx ry rz
    limits (-20.0 45.0)
           (-30.0 30.0)
           (-30.0 30.0)
  end
  begin
     id 17 
     name lclavicle
     direction 0.904803 0.417826 0.0821728  
     length 3.42227  
     axis 0 0 0   XYZ
    dof ry rz
    limits (-20.0 10.0)
           (0.0 20.0)
  end
  begin
     id 18 
     name lhumerus
     direction 1 -4.48965e-011 -2.68786e-027   
     length 5.11878   
     axis -180 -30 -90   XYZ
    dof rx ry rz
    limits (-60.0 90.0)
           (-90.0 90.0)
           (-90.0 90.0)
  end
  begin
     id 19
     name lradius
     direction 1 -4.48965e-011 2.61168e-028   
     length 3.59971   
     axis -180 -30 -90   XYZ
    dof rx
    limits (-10.0 170.0)
  end
  begin
     id 20
     name lwrist
     direction 1 -4.48965e-011 1.58672e-027   
     length 1.79985   
     axis -1.65735e-015 90 90   XYZ
    dof ry
    limits (-180.0 0.0)
 end
  begin
     id 21 
     name lhand
     direction 1 -4.48942e-011 3.17344e-027   
     length 0.62877   
     axis -2.02492e-015 90 90   XYZ
    dof rx rz
    limits (-90.0 90.0)
           (-45.0 45.0)
  end
  begin
     id 22 
     name lfingers
     direction 1 -4.49011e-011 6.34687e-027   
     length 0.506931   
     axis -4.04985e-015 90 90   XYZ
    dof rx
    limits (0.0 90.0)
  end
  begin
     id 23
     name lthumb
     direction 0.707107 -6.34982e-011 0.707107   
     length 0.727854   
     axis -90 45 2.85299e-015   XYZ
    dof rx rz
    limits (-45.0 45.0)
           (-45.0 45.0)
  end
  begin
     id 24 
     name rclavicle
     direction -0.945647 0.32488 0.0143075   
     length 3.52737  
     axis 0 0 0   XYZ 
    dof ry rz
    limits (-10.0 20.0)
           (-20.0 0.0)
  end
  begin
     id 25 
     name rhumerus
     direction -1 -4.48962e-011 1.92182e-027  
     length 5.4902   
     axis -180 30 90   XYZ
    dof rx ry rz
    limits (-90.0 60.0)
           (-90.0 90.0)
           (-90.0 90.0)
  end
  begin
     id 26 
     name rradius
     direction -1 -4.48967e-011 -5.97193e-028   
     length 3.20659   
     axis -180 30 90   XYZ
    dof rx
    limits (-10.0 170.0)
  end
  begin
     id 27 
     name rwrist
     direction -1 -4.48964e-011 1.58672e-027   
     length 1.6033   
     axis -1.65735e-015 -90 -90   XYZ
    dof ry
    limits (-180.0 0.0)
  end
  begin
     id 28
     name rhand
     direction -1 -4.49006e-011 3.17344e-027   
     length 0.691885   
     axis -2.02492e-015 -90 -90   XYZ
    dof rx rz
    limits (-90.0 90.0)
           (-45.0 45.0)
  end
  begin
     id 29
     name rfingers
     direction -1 -4.48908e-011 6.34687e-027   
     length 0.557815   
     axis -4.04985e-015 -90 -90   XYZ
    dof rx
    limits (0.0 90.0)
  end
  begin
     id 30
     name rthumb
     direction -0.707107 -6.34999e-011 0.707107   
     length 0.800915   
     axis -90 -45 -2.85299e-015   XYZ
    dof rx rz
    limits (-45.0 45.0)
           (-45.0 45.0)
  end
:hierarchy
  begin
    root lhipjoint rhipjoint lowerback
    lhipjoint lfemur
    lfemur ltibia
    ltibia lfoot
    lfoot ltoes
    rhipjoint rfemur
    rfemur rtibia
    rtibia rfoot
    rfoot rtoes
    lowerback upperback
    upperback thorax
    thorax lowerneck lclavicle rclavicle
    lowerneck upperneck
    upperneck head
    lclavicle lhumerus
    lhumerus lradius
    lradius lwrist
    lwrist lhand lthumb
    lhand lfingers
    rclavicle rhumerus
    rhumerus rradius
    rradius rwrist
    rwrist rhand rthumb
    rhand rfingers
  end

#!OML:ASF I:\Actors\actors\Patient Classification 1\Patient 1\Session 1\Subject1.ASF
:FULLY-SPECIFIED
:DEGREES
1
root -0.473898 17.493 7.46399 5.75552 -3.09977 -6.64099
lowerback 3.12207 0.302661 4.11381
upperback -8.53518 0.862782 1.12043
thorax -10.8268 0.126161 -1.20418
lowerneck -2.40159 -14.8281 -13.3801
upperneck 22.1457 -22.1542 10.6927
head 10.1608 -10.7012 3.26886
rclavicle 8.05078e-015 -1.31198e-014
rhumerus -54.4769 -31.6413 -57.0229
rradius 23.2806
rwrist 48.9849
rhand 6.71807 -30.2852
rfingers 7.12502
rthumb 32.0073 -57.4897
lclavicle 8.05078e-015 -1.31198e-014
lhumerus -56.7853 36.5821 49.3388
lradius 23.2113
lwrist -25.9945
lhand -15.7977 -13.7521
lfingers 7.12502
lthumb 10.3953 15.9709
rfemur 0.984447 23.9622 25.6834
rtibia 1.61827
rfoot -12.2578 -21.3747
rtoes 0.319907
lfemur 9.87291 -39.1387 -18.1043
ltibia -4.21356
lfoot -17.017 47.4828
ltoes 4.58378
2
root -0.474479 17.493 7.4636 5.74759 -3.03964 -6.64215
lowerback 3.16877 0.325709 4.13497
upperback -8.54159 0.895355 1.08201
thorax -10.8601 0.137535 -1.26162
lowerneck -2.34537 -14.8472 -13.3552
upperneck 22.0742 -22.206 10.7924
head 10.1415 -10.7191 3.29586
rclavicle -3.97569e-016 -7.95139e-015
rhumerus -54.6178 -31.7273 -56.9576
rradius 23.2824
rwrist 48.9829
rhand 6.76324 -30.3218
rfingers 7.12502
rthumb 32.0503 -57.5177
lclavicle -3.97569e-016 -7.95139e-015
lhumerus -57.0565 36.7677 48.9047
lradius 23.0548
lwrist -26.4807
lhand -15.78 -13.5021
lfingers 7.12502
lthumb 10.4124 16.2201
rfemur 1.00364 23.934 25.6983
rtibia 1.61579
rfoot -12.285 -21.4098
rtoes 0.229824
lfemur 9.85113 -39.1454 -18.0798
ltibia -4.20227
lfoot -16.9408 47.4354
ltoes 4.44772
3
root -0.474863 17.4932 7.46303 5.74522 -3.00711 -6.6275
lowerback 3.20245 0.318338 4.10826
upperback -8.53973 0.885203 1.08462
thorax -10.8791 0.134693 -1.24296
lowerneck -2.20656 -14.8059 -13.3986
upperneck 21.8785 -22.1753 10.9748
head 10.0698 -10.7044 3.38192
rclavicle 1.23246e-014 -4.77083e-015
rhumerus -54.639 -31.7059 -56.9594
rradius 23.2913
rwrist 48.9666
rhand 6.86705 -30.3491
rfingers 7.12502
rthumb 32.1491 -57.525
lclavicle 1.23246e-014 -4.77083e-015
lhumerus -57.4336 37.052 48.3869
lradius 22.8825
lwrist -27.0353
lhand -15.558 -13.6339
lfingers 7.12502
lthumb 10.6265 16.0774
rfemur 1.00501 23.8742 25.6785
rtibia 1.6076
rfoot -12.2713 -21.3711
rtoes 0.0317675
lfemur 9.86186 -39.202 -18.1046
ltibia -4.21245
lfoot -17.0131 47.459
ltoes 4.54629
4
root -0.476123 17.493 7.46345 5.77095 -2.98018 -6.62208
lowerback 3.19041 0.308755 4.07613
upperback -8.52338 0.869315 1.09638
thorax -10.8542 0.131012 -1.21041
lowerneck -2.24591 -14.8129 -13.3463
upperneck 21.8338 -22.1681 10.938
head 10.0485 -10.699 3.36171
rclavicle -5.96354e-015 2.38542e-015
rhumerus -54.6519 -31.7586 -56.9104
rradius 23.2637
rwrist 49.1047
rhand 6.98886 -30.3729
rfingers 7.12502
rthumb 32.2651 -57.5253
lclavicle -5.96354e-015 2.38542e-015
lhumerus -57.6001 37.1296 48.2563
lradius 22.7977
lwrist -27.1579
lhand -15.51 -13.6203
lfingers 7.12502
lthumb 10.6728 16.0886
rfemur 0.997177 23.948 25.6771
rtibia 1.5845
rfoot -12.293 -21.4549
rtoes 0.34077
lfemur 9.83764 -39.2765 -18.101
ltibia -4.20877
lfoot -17.0525 47.506
ltoes 4.58815
5
root -0.477333 17.4928 7.46377 5.79263 -2.93933 -6.63397
lowerback 3.18841 0.305486 4.07243
upperback -8.51547 0.864739 1.10138
thorax -10.8443 0.129681 -1.20244
lowerneck -2.23579 -14.8159 -13.3258
upperneck 21.7599 -22.1714 10.9688
head 10.0218 -10.6984 3.37074
rclavicle -7.95139e-016 1.03368e-014
rhumerus -54.7036 -31.8249 -56.8432
rradius 23.2478
rwrist 49.2049
rhand 7.08842 -30.4044
rfingers 7.12502
rthumb 32.3599 -57.5375
lclavicle -7.95139e-016 1.03368e-014
lhumerus -57.82 37.259 48.0061
lradius 22.6822
lwrist -27.4113
lhand -15.4222 -13.6322
lfingers 7.12502
lthumb 10.7575 16.0723
rfemur 0.991324 23.9886 25.6973
rtibia 1.5668
rfoot -12.3043 -21.524
rtoes 0.453206
lfemur 9.80989 -39.3386 -18.0687
ltibia -4.20743
lfoot -17.0635 47.5312
ltoes 4.58468
6
root -0.478693 17.4926 7.46437 5.82297 -2.89657 -6.65629
lowerback 3.17319 0.302806 4.07805
upperback -8.50743 0.861321 1.10958
thorax -10.8263 0.128451 -1.19626
lowerneck -2.23536 -14.8219 -13.3161
upperneck 21.703 -22.1775 10.9916
head 10.0038 -10.6997 3.37688
rclavicle -3.18055e-015 1.35174e-014
rhumerus -54.7612 -31.9116 -56.7524
rradius 23.2256
rwrist 49.3255
rhand 7.17884 -30.4329
rfingers 7.12502
rthumb 32.4459 -57.5484
lclavicle -3.18055e-015 1.35174e-014
lhumerus -58.0214 37.3796 47.783
lradius 22.5686
lwrist -27.6419
lhand -15.3423 -13.6647
lfingers 7.12502
lthumb 10.8346 16.0359
rfemur 0.977105 24.0414 25.7283
rtibia 1.54961
rfoot -12.3143 -21.6067
rtoes 0.580066
lfemur 9.7701 -39.403 -18.0159
ltibia -4.20487
lfoot -17.072 47.5579
ltoes 4.5814
7
root -0.480079 17.4923 7.4652 5.85902 -2.85225 -6.68352
lowerback 3.14816 0.302515 4.08838
upperback -8.50132 0.86102 1.11733
thorax -10.8042 0.128368 -1.19351
lowerneck -2.23223 -14.8294 -13.3215
upperneck 21.6608 -22.1882 11.0194
head 9.99374 -10.7036 3.3858
rclavicle 5.56597e-015 9.14409e-015
rhumerus -54.8302 -32.0136 -56.6391
rradius 23.1959
rwrist 49.448
rhand 7.23815 -30.4428
rfingers 7.12502
rthumb 32.5024 -57.5467
lclavicle 5.56597e-015 9.14409e-015
lhumerus -58.2109 37.4971 47.5686
lradius 22.4516
lwrist -27.8652
lhand -15.2788 -13.6872
lfingers 7.12502
lthumb 10.8958 16.0101
rfemur 0.955279 24.0953 25.7624
rtibia 1.53532
rfoot -12.3228 -21.6937
rtoes 0.694706
lfemur 9.71983 -39.4644 -17.95
ltibia -4.20013
lfoot -17.0712 47.5808
ltoes 4.5662
8
root -0.481322 17.4919 7.46621 5.89733 -2.80849 -6.70951
lowerback 3.1163 0.303333 4.09638
upperback -8.49834 0.861687 1.1246
thorax -10.7816 0.128908 -1.19002
lowerneck -2.22191 -14.8358 -13.3383
upperneck 21.636 -22.2006 11.0501
head 9.99068 -10.7089 3.39713
rclavicle -1.35174e-014 4.45278e-014
rhumerus -54.9058 -32.1149 -56.5121
rradius 23.1586
rwrist 49.5562
rhand 7.25221 -30.4229
rfingers 7.12502
rthumb 32.5157 -57.524
lclavicle -1.35174e-014 4.45278e-014
lhumerus -58.4059 37.6236 47.3384
lradius 22.3294
lwrist -28.102
lhand -15.217 -13.6942
lfingers 7.12502
lthumb 10.9554 16
rfemur 0.927576 24.1356 25.7905
rtibia 1.52423
rfoot -12.3285 -21.7663
rtoes 0.767482
lfemur 9.6658 -39.5227 -17.8836
ltibia -4.19478
lfoot -17.0646 47.6015
ltoes 4.54469
9
root -0.482317 17.4914 7.46729 5.9352 -2.76852 -6.72858
lowerback 3.08011 0.304772 4.09672
upperback -8.49841 0.862181 1.12971
thorax -10.7597 0.129845 -1.18451
lowerneck -2.2014 -14.8401 -13.3568
upperneck 21.6239 -22.213 11.0806
head 9.99061 -10.7146 3.40936
rclavicle 1.03368e-014 -1.07344e-014
rhumerus -54.9844 -32.2064 -56.3799
rradius 23.1139
rwrist 49.6476
rhand 7.22687 -30.3734
rfingers 7.12502
rthumb 32.4916 -57.4795
lclavicle 1.03368e-014 -1.07344e-014
lhumerus -58.6088 37.7561 47.0893
lradius 22.2062
lwrist -28.355
lhand -15.1542 -13.6857
lfingers 7.12502
lthumb 11.016 16.0053
rfemur 0.895402 24.1552 25.8053
rtibia 1.5179
rfoot -12.3329 -21.8123
rtoes 0.795883
lfemur 9.61531 -39.5828 -17.83
ltibia -4.18931
lfoot -17.0702 47.6253
ltoes 4.54834
10
root -0.483008 17.4908 7.46834 5.96985 -2.73396 -6.73626
lowerback 3.04456 0.308123 4.0868
upperback -8.50132 0.864001 1.12926
thorax -10.7414 0.131901 -1.17939
lowerneck -2.17784 -14.8464 -13.3608
upperneck 21.6298 -22.2288 11.0953
head 9.99306 -10.722 3.41398
rclavicle -1.68967e-015 -7.55382e-015
rhumerus -55.0699 -32.2898 -56.2438
rradius 23.0633
rwrist 49.7282
rhand 7.17334 -30.3109
rfingers 7.12502
rthumb 32.4407 -57.4275
lclavicle -1.68967e-015 -7.55382e-015
lhumerus -58.8186 37.894 46.815
lradius 22.0828
lwrist -28.6382
lhand -15.0957 -13.6659
lfingers 7.12502
lthumb 11.0724 16.022
rfemur 0.86311 24.1589 25.8037
rtibia 1.51505
rfoot -12.3372 -21.8362
rtoes 0.805455
lfemur 9.57561 -39.6516 -17.8008
ltibia -4.18447
lfoot -17.0909 47.6589
ltoes 4.58089
11
root -0.483493 17.4904 7.46935 5.99795 -2.70376 -6.73529
lowerback 3.01422 0.313402 4.06937
upperback -8.50502 0.867668 1.12392
thorax -10.7269 0.135148 -1.1756
lowerneck -2.1629 -14.8595 -13.342
upperneck 21.6585 -22.2509 11.0795
head 9.99944 -10.7322 3.40348
rclavicle 6.95746e-016 -1.31198e-014
rhumerus -55.1635 -32.372 -56.1014
rradius 23.0099
rwrist 49.8095
rhand 7.11582 -30.2624
rfingers 7.12502
rthumb 32.3859 -57.3902
lclavicle 6.95746e-016 -1.31198e-014
lhumerus -59.0387 38.0471 46.5057
lradius 21.9586
lwrist -28.96
lhand -15.0421 -13.6617
lfingers 7.12502
lthumb 11.1241 16.0235
rfemur 0.838533 24.156 25.7934
rtibia 1.51159
rfoot -12.3435 -21.8502
rtoes 0.816311
lfemur 9.55305 -39.7291 -17.7953
ltibia -4.1835
lfoot -17.1251 47.703
ltoes 4.64211
